<svg width="36" height="36" viewBox="0 0 36 36" fill="none" xmlns="http://www.w3.org/2000/svg">
<path d="M17.25 34.5C25.9485 34.5 33 27.4485 33 18.75C33 10.0515 25.9485 3 17.25 3C8.55152 3 1.5 10.0515 1.5 18.75C1.5 27.4485 8.55152 34.5 17.25 34.5Z" fill="white"/>
<path d="M33.825 12.4349C32.4192 8.84243 29.7894 5.86208 26.4 4.01991C23.3568 2.27413 19.8364 1.54378 16.35 1.93491C13.9919 2.16957 11.7077 2.88839 9.64025 4.04639C7.57278 5.20439 5.76657 6.77664 4.33465 8.66475C2.90273 10.5529 1.87591 12.7162 1.31846 15.0194C0.76101 17.3225 0.68492 19.716 1.09495 22.0499C1.7937 25.8216 3.75991 29.2415 6.6679 31.743C9.57589 34.2445 13.2512 35.6776 17.085 35.8049C20.3391 35.8483 23.5244 34.867 26.19 32.9999C30.09 30.3749 31.32 26.2649 31.905 21.8699C32.07 20.6249 29.685 20.4749 29.475 22.0349C26.295 35.6349 17.835 36.3999 4.09495 24.3299C3.85495 23.4299 3.59995 22.5299 3.35995 21.6299C2.70105 18.2503 3.28147 14.7465 4.99495 11.7599C8.66495 4.40991 16.395 3.23991 28.185 8.24991C29.2654 9.22546 30.1379 10.4091 30.75 11.7299C32.3547 14.8087 32.9577 18.3118 32.475 21.7499C32.355 23.2499 34.665 23.5349 34.77 22.3499C35.2256 19.0163 34.9021 15.6224 33.825 12.4349Z" fill="#111320"/>
<path d="M12 15L17.19 21L22.5 15" fill="#FFC300"/>
<path d="M25.0351 15.3147L25.2601 15.0297C25.4701 14.7897 25.2601 14.5347 25.0201 14.4747C25.0201 14.3247 25.0201 14.2197 24.8851 14.3247L24.7801 14.4597C24.6907 14.4747 24.6104 14.523 24.5551 14.5947L24.2101 15.0297L24.0001 14.9997C23.8201 14.6247 22.8751 14.3697 22.6801 14.6097C22.6103 14.6017 22.5396 14.6083 22.4725 14.629C22.4054 14.6496 22.3433 14.6839 22.2901 14.7297C21.2701 15.9297 20.2201 17.0997 19.1551 18.2547C18.4951 18.9747 17.8051 19.7547 17.1001 20.3547C16.7262 20.5754 16.3406 20.7757 15.9451 20.9547C15.6396 20.6271 15.3541 20.2814 15.0901 19.9197L12.4801 15.1347C12.1351 14.5197 11.9101 16.1247 11.9251 16.0047L11.8351 15.6447C11.7301 15.4947 11.5651 15.6447 11.4451 16.0947C11.1001 15.6297 10.6351 17.5947 10.9801 17.9547L15.8551 23.8797C15.8905 23.9183 15.9355 23.9469 15.9855 23.9627C16.0356 23.9785 16.0888 23.9809 16.1401 23.9697L16.2451 24.1047C16.3801 24.2547 16.5001 24.3297 16.6201 24.2547L16.8001 24.4647C16.8376 24.5457 16.9 24.6127 16.9783 24.6559C17.0565 24.699 17.1464 24.7161 17.2351 24.7047C20.0851 21.8547 23.1601 19.2447 25.8751 16.2597C26.0251 16.0497 25.5001 15.5997 25.0351 15.3147Z" fill="#111320"/>
</svg>
